<?xml version="1.0" encoding="UTF-8"?>
<svg width="121px" height="36px" viewBox="0 0 121 36" version="1.1" xmlns="http://www.w3.org/2000/svg" xmlns:xlink="http://www.w3.org/1999/xlink">
    <!-- Generator: Sketch 52.2 (67145) - http://www.bohemiancoding.com/sketch -->
    <title>logo</title>
    <desc>Created with Sketch.</desc>
    <defs>
        <polygon id="path-1" points="0 34.5205479 120 34.5205479 120 0 0 0"></polygon>
    </defs>
    <g id="初稿" stroke="none" stroke-width="1" fill="none" fill-rule="evenodd">
        <g id="CITAHub官网框架完善2" transform="translate(-397.000000, -12.000000)">
            <g id="导航栏">
                <g id="logo" transform="translate(398.000000, 13.000000)">
                    <path d="M117.48352,33.6986301 L1.69456171,33.6986301 C0.762529927,33.6986301 0,32.9452605 0,32.0249766 L0,1.67365352 C0,0.753369643 0.762529927,0 1.69456171,0 L117.48352,0 C118.415552,0 119.178082,0.753369643 119.178082,1.67365352 L119.178082,32.0249766 C119.178082,32.9452605 118.415552,33.6986301 117.48352,33.6986301" id="Fill-1" fill="#FEFEFE"></path>
                    <path d="M117.48352,33.6986301 L1.69456171,33.6986301 C0.762529927,33.6986301 0,32.9452605 0,32.0249766 L0,1.67365352 C0,0.753369643 0.762529927,0 1.69456171,0 L117.48352,0 C118.415552,0 119.178082,0.753369643 119.178082,1.67365352 L119.178082,32.0249766 C119.178082,32.9452605 118.415552,33.6986301 117.48352,33.6986301 Z" id="Stroke-3" stroke="#DF2517"></path>
                    <polygon id="Fill-5" fill-opacity="0.5" fill="#DF2517" points="5.75342466 23.0136986 9.8630137 23.0136986 9.8630137 18.9041096 5.75342466 18.9041096"></polygon>
                    <polygon id="Fill-7" fill-opacity="0.5" fill="#DF2517" points="32.8767123 16.0068493 37.3767123 16.0068493 37.3767123 11.5068493 32.8767123 11.5068493"></polygon>
                    <polygon id="Fill-9" fill-opacity="0.5" fill="#DF2517" points="44.3835616 15.6164384 48.4931507 15.6164384 48.4931507 11.5068493 44.3835616 11.5068493"></polygon>
                    <polygon id="Fill-11" fill-opacity="0.5" fill="#DF2517" points="51.7808219 15.6164384 55.890411 15.6164384 55.890411 11.5068493 51.7808219 11.5068493"></polygon>
                    <mask id="mask-2" fill="white">
                        <use xlink:href="#path-1"></use>
                    </mask>
                    <g id="Clip-14"></g>
                    <path d="M5.75342466,27.1232877 L17.2327562,27.1232877 L17.2327562,23.1780822 L5.75342466,23.1780822 L5.75342466,27.1232877 Z M9.5890411,11.3424658 L9.5890411,19.2328767 L5.75342466,19.2328767 L5.75342466,7.39726027 L17.260274,7.39726027 L17.260274,11.3424658 L9.5890411,11.3424658 Z" id="Fill-13" fill="#DF2517" mask="url(#mask-2)"></path>
                    <polygon id="Fill-15" fill="#DF2517" mask="url(#mask-2)" points="21.369863 27.1232877 25.4794521 27.1232877 25.4794521 7.39726027 21.369863 7.39726027"></polygon>
                    <path d="M33.4246575,27.1232877 L37.260274,27.1232877 L37.260274,15.2874886 L33.4246575,15.2874886 L33.4246575,27.1232877 Z M29.5890411,11.3423745 L41.0958904,11.3423745 L41.0958904,7.39726027 L29.5890411,7.39726027 L29.5890411,11.3423745 Z" id="Fill-16" fill="#DF2517" mask="url(#mask-2)"></path>
                    <path d="M48.2191781,11.3424658 L52.0547945,11.3424658 L52.0547945,7.39726027 L48.2191781,7.39726027 L48.2191781,11.3424658 Z M55.890411,27.1232877 L52.0547945,27.1232877 L52.0547945,19.2328767 L48.2191781,19.2328767 L48.2191781,27.1232877 L44.3835616,27.1232877 L44.3835616,15.2876712 L55.890411,15.2876712 L55.890411,27.1232877 Z" id="Fill-17" fill="#DF2517" mask="url(#mask-2)"></path>
                    <path d="M117.497585,33.6986301 L63.1089436,33.6986301 C62.1850594,33.6986301 61.4289042,32.8369803 61.4289042,31.783602 L61.4289042,16.6537521 C61.4289042,15.5588703 58.3561644,12.8647483 58.3561644,12.8647483 C58.3561644,12.8647483 61.4289042,12.2755783 61.4289042,10.0023565 L61.4289042,1.91502811 C61.4289042,0.861649869 62.1850594,0 63.1089436,0 L117.497585,0 C118.421927,0 119.178082,0.861649869 119.178082,1.91502811 L119.178082,31.783602 C119.178082,32.8369803 118.421927,33.6986301 117.497585,33.6986301" id="Fill-18" fill="#DF2517" mask="url(#mask-2)"></path>
                    <path d="M84.2878846,11.5337571 C82.5408632,16.5638959 81.6898096,20.9295721 81.4203247,24.5485365 C81.4036555,24.7707942 81.380967,25.081308 81.3781888,25.505492 C81.3471656,25.9273657 81.3573523,26.1741132 81.3504068,26.2628315 C81.3323486,26.5072687 81.2040886,26.7207469 80.967479,26.9051145 C80.7322585,27.0673025 80.4493457,27.1375378 80.1719893,27.1209031 C79.3139902,27.0691508 78.926432,26.4301023 78.9806068,25.2277855 C79.0616375,23.5148767 79.3408461,21.0529459 79.9409361,17.8281306 C77.3993511,18.1404927 74.6507906,18.4260545 71.61515,18.7051473 C71.4919833,20.4698083 71.3989138,22.8139103 71.3461281,25.7577845 C71.330385,26.0701466 71.229444,26.3640257 71.0169121,26.6181665 C70.7752091,26.8515139 70.5043352,26.9979914 70.1991968,27.014164 C69.8935954,27.0307986 69.6375385,26.9346872 69.4287108,26.7239814 C69.1916382,26.515586 69.0930123,26.2993353 69.0754171,26.0322565 C68.960122,24.2546574 68.9402116,21.8675825 69.1244985,18.8668732 C69.003184,18.8738044 68.7920412,18.9084599 68.5489492,18.9250946 C68.245663,18.9449638 68.0331311,18.9602122 67.9118166,18.9689916 C66.5171629,19.0720342 65.8216882,18.8322177 65.7568637,18.1659068 C65.7360272,17.9441112 65.8087233,17.7352538 66.0064381,17.5162306 C66.1749819,17.3216974 66.4129806,17.1890822 66.7222863,17.163206 C66.8153558,17.1558128 67.1880969,17.1456472 67.8391205,17.1206952 C68.4919962,17.1183848 68.9578069,17.1137641 69.2050662,17.0989777 C69.4842747,13.9157491 70.1552087,11.2241675 71.2215724,9.04779839 C71.4697578,8.46004012 71.6633053,8.11995358 71.7614682,8.0053592 C72.0545677,7.61860316 72.4587951,7.4074353 73.0033212,7.39773174 C73.8886392,7.38340744 74.3664887,7.69576954 74.3683408,8.29646589 C74.3701929,8.45264693 74.0650546,9.1208061 73.5163611,10.2856949 C73.3223505,10.6220849 73.0672197,11.2944027 72.7634704,12.324828 C72.2731191,13.7604922 71.9369575,15.2857989 71.7397057,16.8744097 C75.0212165,16.6369036 77.8799788,16.3522659 80.3590544,15.8657019 C80.7776357,14.0155572 81.1911237,12.567879 81.5884055,11.5226673 C81.6773077,11.171491 81.8750226,10.6710647 82.1542311,10.0209265 C82.352409,9.56624554 82.7723794,9.34953278 83.4071969,9.40128508 C83.7415063,9.42854746 84.066092,9.56809384 84.3165926,9.77002023 C84.5647779,9.9936641 84.6759057,10.2283977 84.6550693,10.4497312 C84.5319026,10.8110732 84.4091991,11.1724152 84.2878846,11.5337571" id="Fill-19" fill="#FEFEFE" mask="url(#mask-2)"></path>
                    <path d="M114.126251,12.6869373 L113.910183,12.8626329 C113.741556,13.015861 113.621662,13.1969487 113.525489,13.3915169 C113.429315,13.611698 113.333573,13.8314298 113.28527,14.0538577 C112.99675,15.1394855 112.828554,16.2695988 112.780251,17.4936262 C112.708229,18.7288872 112.684509,19.9672938 112.684509,21.2191808 C112.684509,21.3692634 112.684509,21.4950812 112.708229,21.6586443 C112.708229,21.808727 112.73238,21.9480252 112.73238,22.0733937 C112.73238,22.2234763 112.612486,22.3043592 112.420139,22.3434526 C112.203641,22.3690655 112.011294,22.307954 111.867249,22.2248244 C111.62703,22.0859754 111.458834,21.9385889 111.33851,21.7193065 C111.218616,21.5247382 111.122442,21.2933234 111.07414,21.0655033 C111.002118,20.848917 110.954246,20.6201982 110.954246,20.3950742 C110.930095,20.181184 110.930095,20.0059378 110.930095,19.8554058 C110.930095,19.654996 110.930095,19.3543814 110.954246,18.9176139 C110.954246,18.4925295 110.977966,18.0049856 111.026269,17.4567795 C111.049989,16.9198072 111.098291,16.3473362 111.146162,15.7231901 C111.194465,15.1255557 111.242336,14.5270225 111.33851,13.9567983 C111.386381,13.4836335 111.458834,13.0742764 111.530857,12.6653685 C111.602879,12.2811749 111.674902,11.9473084 111.771075,11.652086 C111.867249,11.3573129 111.963422,11.1371318 112.059596,10.9672777 C112.15577,10.7978731 112.275663,10.7169902 112.372268,10.6972189 C112.492162,10.6666631 112.660358,10.6886812 112.876856,10.8136003 C112.972598,10.8688703 113.117074,10.9771634 113.28527,11.12455 C113.429315,11.2575574 113.597511,11.4301075 113.741556,11.5882784 C113.886032,11.7468987 114.006357,11.8911398 114.102531,12.047064 C114.198273,12.2281517 114.246575,12.3557669 114.246575,12.4555224 C114.246575,12.5561767 114.198273,12.6285219 114.126251,12.6869373 M112.876856,26.1130434 C112.780251,26.2078561 112.636206,26.2743597 112.492162,26.291435 C112.323966,26.3192947 112.131618,26.2833467 111.939271,26.2478481 C111.723204,26.1732562 111.530857,26.1116953 111.33851,26.0007061 C111.049989,25.8339975 110.785619,25.556749 110.521681,25.2031112 C110.257311,24.850372 110.136986,24.5555989 110.136986,24.2549842 C110.136986,23.8797776 110.305182,23.6762224 110.665726,23.6339836 C111.002118,23.5778149 111.386381,23.6748744 111.771075,23.8968529 C112.083747,24.0774913 112.372268,24.3439554 112.636206,24.6719803 C112.900576,25.0247195 113.045052,25.358586 113.045052,25.6592006 C113.045052,25.859161 112.972598,26.0182307 112.876856,26.1130434" id="Fill-20" fill="#FEFEFE" mask="url(#mask-2)"></path>
                    <path d="M96.0135065,25.0380094 C95.7708339,25.2235811 95.4931733,25.3708951 95.2087844,25.4263027 C94.8458969,25.4971014 94.548051,25.3959604 94.3076212,25.1862029 C94.0784055,24.9861197 93.8621981,24.5397802 93.7132752,23.8893998 C93.2382469,24.4311636 92.7354078,24.798789 92.167527,25.0292145 C91.598749,25.2605195 91.1178895,25.3977194 90.737508,25.4350976 C89.926506,25.5151309 89.2451388,25.4830296 88.7548594,25.3695758 C88.2358719,25.2490862 87.7464897,25.0243773 87.4042361,24.6426801 C87.0705052,24.2688983 86.7722107,23.7258153 86.5721516,23.0591644 C86.3720925,22.3911943 86.1993957,21.5552422 86.1182058,20.6313415 C86.1078889,20.5165685 86.101609,20.2711917 86.0818722,19.8802599 C86.0648268,19.544296 86.0280447,19.0887219 86.0042708,18.6428222 C85.9800484,18.1947238 85.9576203,17.7549804 85.9190438,17.2967679 C85.8827102,16.8666989 85.8840559,16.5267773 85.8647677,16.2985506 C85.8360597,15.9559905 85.7768493,15.578251 85.6804083,15.1969935 C85.5911443,14.8425604 85.5314854,14.5470529 85.4794521,14.3091518 C86.1460167,14.0343122 86.7071691,13.9261353 87.1176043,13.9907776 C87.5293851,14.0562993 87.8815071,14.2075711 88.1394309,14.4437132 C88.3973546,14.6802951 88.528335,14.8970886 88.5364092,15.1042077 C88.545829,15.3632165 88.5229523,15.5685766 88.5287836,15.723806 C88.4987299,15.8975046 88.4839273,15.9841341 88.4543221,16.1587122 C88.421577,16.5399696 88.4054288,16.731258 88.3740293,17.1151539 C88.3282759,17.4515575 88.3385929,17.68726 88.3453213,17.8442483 C88.3498069,17.9489072 88.3296216,18.1573456 88.3430785,18.4713223 C88.3776178,19.2562642 88.3951118,19.6489549 88.4296512,20.4343365 C88.4157457,20.7500722 88.4242684,20.9334452 88.4278569,21.012599 C88.4493879,21.4835641 88.5274379,21.9021997 88.6472042,22.280379 C88.7750447,22.6831839 88.9454987,23.0129914 89.140175,23.268922 C89.3406827,23.5318885 89.6125119,23.7473627 89.8937609,23.8810447 C90.1489933,24.0024138 90.4715101,24.0793689 90.8357433,24.0547433 C91.3044917,24.022642 91.723001,23.8740088 92.096654,23.6198372 C92.4393562,23.3867732 92.7748813,23.0824708 93.0260766,22.72408 C93.2615722,22.3885558 93.4616313,21.951451 93.6222169,21.5314961 C93.7751769,21.1326489 93.900326,20.7232479 93.9339682,20.3595801 C93.9720961,19.9514983 94.0097754,19.5157127 94.0353435,19.0702527 C94.0595659,18.6480991 94.110702,18.2518904 94.1326816,17.8772291 C94.1519698,17.5496203 94.1403072,17.2413602 94.1551098,16.9832309 C94.1649782,16.8148092 94.1694638,16.7299388 94.1793322,16.5615171 C94.2066945,16.0931904 94.2250856,15.7642624 94.2964071,15.5883651 C94.3681772,15.4115883 94.4372559,15.2823037 94.5659935,15.1899576 C94.6319323,15.1099244 94.7633613,15.081341 94.9414408,15.0826603 C95.06031,15.0835398 95.1872533,15.0940936 95.3083654,15.1244359 C95.3689214,15.1398269 95.4882391,15.1925961 95.7246319,15.3060499 C95.9614731,15.4190639 96.1624294,15.5391138 96.3086609,15.6437727 C96.4768721,15.7625034 96.6832111,15.9639059 96.8110515,16.1266109 C96.9231923,16.2695275 96.9945138,16.4106851 96.9855426,16.4929171 C96.974777,16.5966965 96.9321636,16.7101503 96.9191552,16.8341579 C96.8478337,16.9383771 96.8061173,17.079095 96.7590182,17.2123372 C96.6854539,17.4212153 96.6096467,17.6322921 96.5813873,17.7884009 C96.5499878,17.9607803 96.4921232,18.1881276 96.4315672,18.4022826 C96.397925,18.5196941 96.3548629,18.7232952 96.3216693,18.922499 C96.2889242,19.1208232 96.2516934,19.3446526 96.2310595,19.5579281 C96.1853061,19.7940702 96.1624294,19.9128009 96.116676,20.1507021 C96.1023219,20.305052 96.0946964,20.3820071 96.0798938,20.5367967 C96.0327947,21.0301887 96.0045352,21.4738897 95.9861441,21.804137 C95.9664073,22.1563714 95.9632674,22.5033289 95.9771728,22.7434287 C95.992424,23.005076 96.0247205,23.2592476 96.0682311,23.4522949 C96.1108446,23.6427038 96.1601866,23.8568588 96.2472078,24.0248408 C96.2431707,24.0670561 96.2961012,24.122024 96.3324348,24.2126112 C96.3759454,24.319029 96.390748,24.401261 96.3885052,24.421929 C96.3615914,24.668625 96.2364423,24.867389 96.0135065,25.0380094" id="Fill-21" fill="#FEFEFE" mask="url(#mask-2)"></path>
                    <path d="M106.122442,15.649865 C105.733618,15.2241985 105.145283,15.1708177 104.388473,15.6098293 C103.884376,15.9025037 103.414418,16.3079222 103.032244,16.7358896 C102.604848,17.2140165 102.26435,17.7133117 101.975281,18.2241114 C101.685769,18.7349111 101.456553,19.259056 101.311576,19.7693955 C101.158174,20.3087264 101.08103,20.8655441 101.07837,21.4674594 C101.076153,22.0472861 101.158174,22.5318555 101.304925,22.8636452 C101.457883,23.2078598 101.668921,23.4747642 101.879073,23.6266235 C102.07814,23.7701997 102.336174,23.7720404 102.617705,23.7260224 C102.895247,23.6804646 103.178108,23.5879684 103.45432,23.4439321 C105.123559,22.5723514 106.164117,20.9272082 106.509492,17.9562867 C106.624765,16.9438909 106.513483,16.0773721 106.122442,15.649865 M107.821829,21.0123415 C107.527883,21.5208403 107.181621,22.03164 106.786147,22.4913597 C106.368505,22.9763893 105.89766,23.4480737 105.412184,23.8056335 C104.926265,24.162273 104.417734,24.448965 103.923391,24.6178511 C103.222444,24.8571446 102.660267,24.9846145 102.218684,25.0182076 C101.777987,25.0518007 101.419311,24.9698887 101.176795,24.760967 C101.177239,24.9132866 101.166598,25.0794115 101.157731,25.2381736 C101.148864,25.4033782 101.098764,25.5722642 101.020734,25.7089376 C100.903687,25.9519126 100.690433,26.1424271 100.39959,26.2505694 C100.166828,26.3370832 99.9522433,26.3163751 99.7704669,26.1631352 C99.5682962,25.9933288 99.4357325,25.6615391 99.4162248,25.1613235 C99.4113478,25.0412166 99.4086877,24.980933 99.4042541,24.8612862 C99.3772093,24.6850373 99.3479478,24.4554076 99.3373072,24.1765385 C99.3240065,23.8222 99.3173562,23.6445706 99.3044988,23.2893117 C99.2739072,22.8972384 99.2583897,22.6989008 99.2273547,22.2985443 C99.2162708,21.98056 99.2109505,21.8208776 99.2003099,21.5019729 C99.170605,21.2543961 99.1648414,21.0721649 99.1612945,20.9690846 C99.1533141,20.7100033 99.1488805,20.5806927 99.1409001,20.3216114 C99.1329197,20.0629903 99.1227225,19.7242979 99.1360232,19.3860657 C99.1227225,18.9199034 99.1165155,18.6875126 99.1045448,18.2199698 C99.0943476,17.8306576 99.1094218,17.4809208 99.0992245,17.036387 C99.0766133,16.0368763 99.0797168,14.9821439 99.1129686,13.8450393 C99.1094218,13.5749137 99.107205,13.4391607 99.1036581,13.1685749 C99.07617,12.575403 99.0624259,12.2795073 99.0358245,11.6890965 C98.9874986,11.0273578 98.9635573,10.6983291 98.9156748,10.0471745 C98.8571517,9.48529487 98.8673489,9.0403009 98.7981852,8.79548518 C98.7542928,8.63810365 98.6740452,8.4788814 98.6594145,8.3827038 C98.6465571,8.2980307 98.6305963,8.20967616 98.6301529,8.15491475 C98.6288228,8.01962185 98.7108439,7.91332029 98.8744426,7.85073583 C99.0384846,7.78861154 99.1763687,7.70854023 99.2867645,7.64871684 C99.7545061,7.4756892 100.115842,7.3588035 100.335304,7.40896311 C100.445256,7.43427301 100.659398,7.49133531 100.800385,7.54977816 C100.95157,7.61236263 101.151524,7.76330164 101.312019,7.86868284 C101.550545,8.0895692 101.680005,8.25201271 101.675128,8.37948254 C101.672912,8.44298737 101.641877,8.53134191 101.610398,8.65190905 C101.571826,8.82125526 101.552762,8.90592836 101.514633,9.07481439 C101.425962,9.30720524 101.378966,9.52441016 101.358128,9.76370372 C101.338177,9.99747511 101.314679,10.3186807 101.305812,10.626541 C101.294285,11.0278179 101.257929,11.8018405 101.195859,12.890166 C101.132016,14.0038014 101.069946,15.3539693 101.027384,16.8403504 C101.481381,16.3396746 101.991685,15.9199906 102.592877,15.4064298 C103.160374,14.9223205 103.70792,14.5293269 104.193396,14.2973962 C105.83426,13.5173913 107.065905,13.8919777 107.759316,15.0212592 C108.46913,16.1661868 108.607457,17.9581274 108.413267,19.2475515 C108.299324,20.0073085 108.105134,20.5217897 107.821829,21.0123415" id="Fill-22" fill="#F6F7F7" mask="url(#mask-2)"></path>
                </g>
            </g>
        </g>
    </g>
</svg>