<svg width="121" height="36" viewBox="0 0 121 36" xmlns="http://www.w3.org/2000/svg" xmlns:xlink="http://www.w3.org/1999/xlink"><defs><path id="a" d="M0 34.52h120V0H0z"/></defs><g transform="translate(1 1)" fill="none" fill-rule="evenodd"><path d="M117.484 33.699H1.694c-.93 0-1.694-.754-1.694-1.674V1.674C0 .754.763 0 1.695 0h115.789c.932 0 1.694.753 1.694 1.674v30.351a1.69 1.69 0 01-1.694 1.674" fill="#FEFEFE"/><path d="M117.484 33.699H1.694c-.93 0-1.694-.754-1.694-1.674V1.674C0 .754.763 0 1.695 0h115.789c.932 0 1.694.753 1.694 1.674v30.351a1.69 1.69 0 01-1.694 1.674z" stroke="#DF2517"/><path fill-opacity=".5" fill="#DF2517" d="M5.753 23.014h4.11v-4.11h-4.11zm27.124-7.007h4.5v-4.5h-4.5zm11.507-.391h4.11v-4.11h-4.11zm7.396 0h4.11v-4.11h-4.11z"/><mask id="b" fill="#fff"><use xlink:href="#a"/></mask><path d="M5.753 27.123h11.48v-3.945H5.753v3.945zm3.836-15.78v7.89H5.753V7.397H17.26v3.945H9.59zm11.781 15.78h4.11V7.397h-4.11zm12.055 0h3.835V15.287h-3.835v11.836zm-3.836-15.78h11.507V7.396H29.589v3.945zm18.631-.001h3.835V7.397h-3.836v3.945zm7.67 15.781h-3.835v-7.89h-3.836v7.89h-3.835V15.288H55.89v11.835zm61.608 6.576h-54.39c-.923 0-1.68-.862-1.68-1.915v-15.13c0-1.095-3.072-3.79-3.072-3.79s3.073-.588 3.073-2.862V1.915c0-1.053.756-1.915 1.68-1.915h54.389c.924 0 1.68.862 1.68 1.915v29.869c0 1.053-.756 1.915-1.68 1.915" fill="#DF2517" mask="url(#b)"/><path d="M84.288 11.534c-1.747 5.03-2.598 9.396-2.868 13.015-.016.222-.039.532-.042.956-.03.422-.02.67-.028.758-.018.244-.146.458-.383.642a1.268 1.268 0 01-.795.216c-.858-.052-1.246-.69-1.191-1.893.08-1.713.36-4.175.96-7.4-2.542.312-5.29.598-8.326.877-.123 1.765-.216 4.109-.269 7.053a1.42 1.42 0 01-.33.86c-.24.234-.512.38-.817.396a.962.962 0 01-.77-.29c-.237-.208-.336-.425-.354-.692-.115-1.777-.135-4.164.05-7.165-.122.007-.333.041-.576.058l-.637.044c-1.395.103-2.09-.137-2.155-.803-.021-.222.052-.43.25-.65.168-.194.406-.327.715-.353.093-.007.466-.017 1.117-.042a31.251 31.251 0 001.366-.022c.28-3.183.95-5.875 2.017-8.051.248-.588.441-.928.54-1.043.293-.386.697-.598 1.241-.607.886-.015 1.363.298 1.365.898.002.157-.303.825-.852 1.99-.194.336-.449 1.008-.753 2.039a22.742 22.742 0 00-1.023 4.55c3.281-.238 6.14-.523 8.62-1.01.418-1.85.831-3.297 1.228-4.342.09-.352.287-.852.566-1.502.198-.455.618-.671 1.253-.62a1.7 1.7 0 01.91.369c.248.224.359.458.338.68-.123.361-.246.722-.367 1.084m29.838 1.153l-.216.176a1.735 1.735 0 00-.385.529c-.096.22-.191.44-.24.662a15.67 15.67 0 00-.505 3.44 63.936 63.936 0 00-.095 3.725c0 .15 0 .276.023.44 0 .15.024.289.024.414 0 .15-.12.231-.312.27a.897.897 0 01-.553-.118c-.24-.139-.408-.286-.528-.506a2.118 2.118 0 01-.265-.653 2.15 2.15 0 01-.12-.67c-.024-.215-.024-.39-.024-.54 0-.201 0-.502.024-.938 0-.425.024-.913.072-1.461.024-.537.072-1.11.12-1.734.048-.597.096-1.196.193-1.766.047-.473.12-.883.192-1.292.072-.384.144-.718.24-1.013.096-.295.192-.515.289-.685.096-.17.216-.25.312-.27.12-.03.288-.008.505.117.096.055.24.163.408.31.144.134.313.306.457.464.144.159.264.303.36.46.096.18.145.308.145.408 0 .1-.049.173-.12.23m-1.25 13.427a.68.68 0 01-.385.178c-.168.028-.36-.008-.553-.043-.216-.075-.408-.136-.6-.247-.289-.167-.553-.444-.817-.798-.265-.353-.385-.647-.385-.948 0-.375.168-.579.529-.621.336-.056.72.04 1.105.263.313.18.601.447.865.775.265.353.41.687.41.987 0 .2-.073.36-.17.454m-16.862-1.075a1.99 1.99 0 01-.805.388c-.363.071-.66-.03-.901-.24-.23-.2-.446-.646-.595-1.297-.475.542-.978.91-1.545 1.14-.57.232-1.05.369-1.43.406-.811.08-1.493.048-1.983-.065-.52-.12-1.009-.346-1.35-.727-.334-.374-.633-.917-.833-1.584a12.37 12.37 0 01-.454-2.428c-.01-.114-.016-.36-.036-.75-.017-.337-.054-.792-.078-1.238-.024-.448-.046-.888-.085-1.346-.036-.43-.035-.77-.054-.998a6.886 6.886 0 00-.185-1.102c-.089-.354-.149-.65-.2-.888.666-.275 1.227-.383 1.638-.318.411.065.764.217 1.021.453.258.236.39.453.397.66.01.26-.013.465-.007.62l-.075.435c-.032.381-.049.572-.08.956-.046.337-.035.572-.029.73.005.104-.015.312-.002.626l.087 1.963c-.014.316-.006.5-.002.579.021.47.1.89.22 1.267.127.403.297.733.492.989.2.263.473.478.754.612.255.121.578.198.942.174a2.504 2.504 0 001.26-.435 3.64 3.64 0 00.93-.896c.236-.335.436-.773.596-1.193.153-.398.278-.808.312-1.171.038-.409.076-.844.101-1.29.025-.422.076-.818.098-1.193.019-.327.007-.636.022-.894l.024-.421c.028-.469.046-.798.117-.974.072-.176.141-.306.27-.398.066-.08.197-.109.375-.107.12 0 .246.011.367.041.06.016.18.069.417.182.236.113.437.233.584.338.168.119.374.32.502.483.112.143.184.284.175.366-.011.104-.054.217-.067.341-.071.104-.113.245-.16.378-.074.21-.15.42-.178.576-.031.173-.089.4-.15.614a5.367 5.367 0 00-.11.52c-.032.199-.07.423-.09.636l-.114.593-.037.386a33.6 33.6 0 00-.094 1.267c-.02.352-.023.7-.009.94.015.261.048.515.091.708.043.19.092.405.18.573-.005.042.048.097.084.188a.64.64 0 01.057.209c-.027.247-.153.445-.375.616" fill="#FEFEFE" mask="url(#b)"/><path d="M106.122 15.65c-.388-.426-.977-.48-1.734-.04a5.726 5.726 0 00-1.356 1.126 8.454 8.454 0 00-1.057 1.488 7.13 7.13 0 00-.663 1.545 6.231 6.231 0 00-.234 1.698c-.002.58.08 1.065.227 1.397.153.344.364.61.574.763.2.143.457.145.739.099a2.8 2.8 0 00.836-.282c1.67-.872 2.71-2.517 3.055-5.488.116-1.012.004-1.879-.387-2.306m1.7 5.362a9.798 9.798 0 01-1.036 1.48c-.417.484-.888.956-1.374 1.314-.486.356-.994.643-1.489.812-.7.24-1.263.367-1.704.4-.441.034-.8-.048-1.042-.257 0 .152-.01.318-.02.477a1.091 1.091 0 01-.136.47c-.117.244-.33.434-.621.543-.233.086-.448.065-.63-.088-.202-.17-.334-.501-.354-1.002l-.012-.3a5.93 5.93 0 01-.067-.684l-.033-.888-.077-.99-.027-.797c-.03-.248-.035-.43-.039-.533l-.02-.647a13.397 13.397 0 01-.005-.936c-.013-.466-.02-.698-.031-1.166-.01-.39.004-.74-.006-1.184-.022-1-.02-2.054.014-3.191l-.01-.676-.067-1.48-.12-1.642c-.059-.562-.049-1.007-.118-1.252-.044-.157-.124-.316-.139-.412-.012-.085-.028-.173-.029-.228-.001-.135.08-.242.244-.304.164-.062.302-.142.413-.202.468-.173.829-.29 1.048-.24.11.025.324.082.465.14.152.063.352.214.512.32.239.22.368.383.363.51-.002.064-.033.152-.065.273l-.095.423a2.47 2.47 0 00-.157.689c-.02.233-.043.555-.052.863a94.644 94.644 0 01-.11 2.263 139.593 139.593 0 00-.169 3.95c.454-.5.965-.92 1.566-1.434.567-.484 1.115-.877 1.6-1.109 1.641-.78 2.873-.405 3.566.724.71 1.145.848 2.937.654 4.227-.114.76-.308 1.274-.591 1.764" fill="#F6F7F7" mask="url(#b)"/></g></svg>